# xmcd
#
# Track frame offsets:
#	150
#	19075
#	37492
#	60130
#	78592
#	94177
#	120032
#	130920
#	152307
#	157000
#	172150
#	193782
#	211760
#	239600
#	253505
#	273580
#	295202
#	309035
#
# Disc length: 4448 seconds
#
# Revision: 1
# Processed by: cddbd v1.5PL3 Copyright (c) Steve Scherf et al.
# Submitted via: CDex 1.50Beta5
#
DISCID=f2115e12
DTITLE=下町兄弟 - Rap Rapper Rappest 1992-1999
DYEAR=2000
DGENRE=Rock
TTITLE0=HANGE
TTITLE1=酔っぱらってホテルでH
TTITLE2=結婚しないシンドローム
TTITLE3=SISTA PANTS
TTITLE4=ビックリ!あべさん
TTITLE5=Hurgry Dance
TTITLE6=Downtown Party
TTITLE7=BODYCOM
TTITLE8=ワタシミラレテンダ
TTITLE9=パリッ!とオバさん
TTITLE10=恋した彼女は霊感師
TTITLE11=グリグリおじさん
TTITLE12=男と女はアカの他人
TTITLE13=はめられた
TTITLE14=Country Boy
TTITLE15=牡丹橋
TTITLE16=Yubi Ga Tsutta from「A Battle Beat Joint」
TTITLE17=勝手にHappy Birthday
EXTD=
EXTT0=
EXTT1=
EXTT2=
EXTT3=
EXTT4=
EXTT5=
EXTT6=
EXTT7=
EXTT8=
EXTT9=
EXTT10=
EXTT11=
EXTT12=
EXTT13=
EXTT14=
EXTT15=
EXTT16=
EXTT17=
PLAYORDER=
